<svg version="1.1" id="Layer_1" xmlns="http://www.w3.org/2000/svg" xmlns:xlink="http://www.w3.org/1999/xlink" x="0px" y="0px"
	 width="100%" viewBox="0 0 256 256" enable-background="new 0 0 256 256" xml:space="preserve">
<path fill="#603EFF" opacity="1.000000" stroke="none" 
	d="
M116.000000,257.000000 
	C77.333336,257.000000 39.166672,257.000000 1.000005,257.000000 
	C1.000003,171.666672 1.000003,86.333351 1.000002,1.000017 
	C86.333321,1.000011 171.666641,1.000011 257.000000,1.000005 
	C257.000000,86.333313 257.000000,171.666626 257.000000,256.999969 
	C210.166672,257.000000 163.333328,257.000000 116.000000,257.000000 
M159.557755,79.941605 
	C154.880951,75.227402 150.611877,69.442024 143.287125,69.285248 
	C129.806549,68.996704 116.272873,68.704071 102.836746,69.575760 
	C91.149261,70.334007 82.201324,80.483498 82.103333,92.043915 
	C81.898582,116.200005 81.837486,140.362747 82.183372,164.516083 
	C82.398048,179.507034 92.359177,188.845978 107.415390,188.969513 
	C121.242981,189.082977 135.073196,189.084930 148.900620,188.957962 
	C166.697311,188.794556 175.923477,179.451218 175.989655,161.664825 
	C176.042343,147.503220 175.954315,133.341095 176.008392,119.179489 
	C176.110275,92.507126 176.407120,97.323891 159.557755,79.941605 
z"/>
<path fill="#FEFEFF" opacity="1.000000" stroke="none" 
	d="
M159.806808,80.192574 
	C176.407120,97.323891 176.110275,92.507126 176.008392,119.179489 
	C175.954315,133.341095 176.042343,147.503220 175.989655,161.664825 
	C175.923477,179.451218 166.697311,188.794556 148.900620,188.957962 
	C135.073196,189.084930 121.242981,189.082977 107.415390,188.969513 
	C92.359177,188.845978 82.398048,179.507034 82.183372,164.516083 
	C81.837486,140.362747 81.898582,116.200005 82.103333,92.043915 
	C82.201324,80.483498 91.149261,70.334007 102.836746,69.575760 
	C116.272873,68.704071 129.806549,68.996704 143.287125,69.285248 
	C150.611877,69.442024 154.880951,75.227402 159.806808,80.192574 
M137.265656,105.593559 
	C134.173233,96.988335 126.716911,92.735497 117.978790,95.087440 
	C116.380287,95.517693 114.333321,97.875839 114.271973,99.414948 
	C114.210274,100.962639 116.114365,102.939003 117.641838,104.076508 
	C118.659050,104.834000 120.526627,104.561005 122.012970,104.556160 
	C126.429535,104.541771 128.263016,106.722748 128.216156,111.076920 
	C128.186050,113.875519 128.097610,116.930931 129.124863,119.421898 
	C130.591064,122.977211 133.055267,126.120949 134.330170,128.197571 
	C132.071640,133.441360 129.236343,137.731705 128.435150,142.373154 
	C126.880905,151.377289 127.304039,151.278015 118.176659,153.831131 
	C116.479492,154.305862 114.483040,156.787247 114.280342,158.534592 
	C114.123970,159.882507 116.374603,162.618713 117.873924,162.875488 
	C130.716766,165.074860 137.942093,157.997360 137.771744,148.085846 
	C137.676361,142.536255 139.516571,138.691025 143.417664,135.052826 
	C148.894180,129.945389 148.896576,128.022598 143.371597,122.889404 
	C139.446411,119.242538 137.029434,115.357452 137.887192,109.833183 
	C138.059006,108.726768 137.662537,107.532112 137.265656,105.593559 
z"/>
<path fill="#6544FF" opacity="1.000000" stroke="none" 
	d="
M137.396881,105.985855 
	C137.662537,107.532112 138.059006,108.726768 137.887192,109.833183 
	C137.029434,115.357452 139.446411,119.242538 143.371597,122.889404 
	C148.896576,128.022598 148.894180,129.945389 143.417664,135.052826 
	C139.516571,138.691025 137.676361,142.536255 137.771744,148.085846 
	C137.942093,157.997360 130.716766,165.074860 117.873924,162.875488 
	C116.374603,162.618713 114.123970,159.882507 114.280342,158.534592 
	C114.483040,156.787247 116.479492,154.305862 118.176659,153.831131 
	C127.304039,151.278015 126.880905,151.377289 128.435150,142.373154 
	C129.236343,137.731705 132.071640,133.441360 134.330170,128.197571 
	C133.055267,126.120949 130.591064,122.977211 129.124863,119.421898 
	C128.097610,116.930931 128.186050,113.875519 128.216156,111.076920 
	C128.263016,106.722748 126.429535,104.541771 122.012970,104.556160 
	C120.526627,104.561005 118.659050,104.834000 117.641838,104.076508 
	C116.114365,102.939003 114.210274,100.962639 114.271973,99.414948 
	C114.333321,97.875839 116.380287,95.517693 117.978790,95.087440 
	C126.716911,92.735497 134.173233,96.988335 137.396881,105.985855 
z"/>
</svg>